<?xml version="1.0" encoding="UTF-8"?>
<svg version="1.1" xmlns="http://www.w3.org/2000/svg" width="99" height="111">
<path d="M0 0 C7.37595472 4.89566009 11.76150129 11.24598114 13.62890625 19.921875 C14.75841455 29.10061612 13.46084428 37.20347489 7.75 44.625 C6.50978613 46.09166481 5.25951847 47.54987955 4 49 C2.7187026 50.59582111 1.44759963 52.19988815 0.1875 53.8125 C-0.37582031 54.52019531 -0.93914062 55.22789063 -1.51953125 55.95703125 C-5.3362781 61.22394049 -5.37589281 66.000261 -5.56640625 72.33203125 C-5.79882058 77.79882058 -5.79882058 77.79882058 -8 80 C-10.87342061 80.19856972 -13.62861988 80.27828946 -16.5 80.25 C-17.67755859 80.26160156 -17.67755859 80.26160156 -18.87890625 80.2734375 C-24.74669213 80.25330787 -24.74669213 80.25330787 -27 78 C-27.10837441 76.21599056 -27.20556647 74.43001636 -27.22485352 72.64282227 C-27.35377111 61.65729091 -30.69668352 55.51839756 -38.125 47.4375 C-44.74667671 40.2080977 -47.09919576 32.7778678 -47 23 C-46.38999652 15.0829336 -42.84940367 8.65057084 -37.109375 3.20703125 C-26.20768956 -5.48427308 -12.328429 -7.11417906 0 0 Z " fill="#54AF32" transform="translate(66,24)"/>
<path d="M0 0 C1.67542976 0.28604898 3.34385343 0.61781233 5 1 C5.125 7.625 5.125 7.625 4 11 C5.98 11 7.96 11 10 11 C9.67 10.443125 9.34 9.88625 9 9.3125 C7.84750995 6.64736676 7.69725595 4.87606851 8 2 C8.66 1.34 9.32 0.68 10 0 C12.625 0.375 12.625 0.375 15 1 C15.125 7.625 15.125 7.625 14 11 C15.32 10.67 16.64 10.34 18 10 C18.7734375 12.20703125 18.7734375 12.20703125 19 15 C17.1640625 17.19921875 17.1640625 17.19921875 14.625 19.6875 C7.02695227 29.00541589 8.73407542 41.55379159 9 53 C7.35 53 5.7 53 4 53 C2.5167943 26.08266894 2.5167943 26.08266894 7.9375 19 C9.27066802 17.64567058 10.62024145 16.30683262 12 15 C12.33 14.01 12.66 13.02 13 12 C12.01 12.495 12.01 12.495 11 13 C9.55151418 13.08342159 8.09929131 13.10732861 6.6484375 13.09765625 C5.79765625 13.09443359 4.946875 13.09121094 4.0703125 13.08789062 C3.18085937 13.07951172 2.29140625 13.07113281 1.375 13.0625 C0.02921875 13.05573242 0.02921875 13.05573242 -1.34375 13.04882812 C-3.56256648 13.03702591 -5.78125018 13.02056155 -8 13 C-7.00413 15.17179281 -6.00396183 16.99505645 -4.50537109 18.86499023 C0.90257401 25.61629454 0.72276592 31.67599099 0.375 40.0625 C0.34792969 41.30966797 0.32085937 42.55683594 0.29296875 43.84179688 C0.22274885 46.89636235 0.12444599 49.94724403 0 53 C-1.65 53 -3.3 53 -5 53 C-4.98316162 52.27522461 -4.96632324 51.55044922 -4.94897461 50.80371094 C-4.08661045 34.21557942 -4.08661045 34.21557942 -10.625 19.6875 C-11.46289062 18.86636719 -12.30078125 18.04523437 -13.1640625 17.19921875 C-15 15 -15 15 -14.7734375 12.20703125 C-14.39058594 11.11455078 -14.39058594 11.11455078 -14 10 C-12.02 10.495 -12.02 10.495 -10 11 C-10.33 10.34 -10.66 9.68 -11 9 C-11.04022391 6.6670134 -11.04320247 4.33293334 -11 2 C-10.67 2 -10.34 2 -10 2 C-9.67 3.65 -9.34 5.3 -9 7 C-8.67 7 -8.34 7 -8 7 C-7.67 5.02 -7.34 3.04 -7 1 C-6.34 1 -5.68 1 -5 1 C-4.875 7.625 -4.875 7.625 -6 11 C-4.02 11 -2.04 11 0 11 C-0.33 10.34 -0.66 9.68 -1 9 C-1.18704404 6.30986661 -1.08581391 3.70313823 -1 1 C-0.67 0.67 -0.34 0.34 0 0 Z " fill="#F2F8F0" transform="translate(47,36)"/>
<path d="M0 0 C7.26 0 14.52 0 22 0 C20.98068963 4.07724148 20.0929945 5.25622335 17.49609375 8.3671875 C12.94675513 14.69882516 12.99340907 20.53312569 13.0625 28.125 C13.04638672 29.36765625 13.03027344 30.6103125 13.01367188 31.890625 C12.97862264 34.92822541 12.97474531 37.96240399 13 41 C17.455 40.505 17.455 40.505 22 40 C22.05384521 42.29141286 22.09272087 44.58318188 22.125 46.875 C22.14820312 48.15117188 22.17140625 49.42734375 22.1953125 50.7421875 C22 54 22 54 20 56 C17.12657939 56.19856972 14.37138012 56.27828946 11.5 56.25 C10.32244141 56.26160156 10.32244141 56.26160156 9.12109375 56.2734375 C3.25330787 56.25330787 3.25330787 56.25330787 1 54 C0.8046875 50.7421875 0.8046875 50.7421875 0.875 46.875 C0.89304688 45.59367187 0.91109375 44.31234375 0.9296875 42.9921875 C0.95289063 42.00476563 0.97609375 41.01734375 1 40 C3.64 40.33 6.28 40.66 9 41 C10.15883838 23.05220811 10.15883838 23.05220811 3.9375 7 C3.20402344 6.2575 2.47054687 5.515 1.71484375 4.75 C0 3 0 3 0 0 Z " fill="#2F682C" transform="translate(38,48)"/>
<path d="M0 0 C7.26 0 14.52 0 22 0 C20.98199069 4.07203723 20.08302807 5.28087545 17.49609375 8.3984375 C13.0389313 14.60178702 12.99192983 20.17777174 13.0625 27.625 C13.04638672 28.81996094 13.03027344 30.01492187 13.01367188 31.24609375 C12.97864198 34.16525203 12.9747301 37.08084696 13 40 C11.68 40 10.36 40 9 40 C9.01160156 39.26998779 9.02320313 38.53997559 9.03515625 37.7878418 C9.89705178 19.83751608 9.89705178 19.83751608 1.71484375 4.78515625 C0 3 0 3 0 0 Z " fill="#58B137" transform="translate(38,48)"/>
<path d="M0 0 C0.99 0.33 1.98 0.66 3 1 C2.50346986 5.44549639 1.09212725 7.06776447 -2 10.1875 C-9.01899904 19.21192733 -7.17300518 32.1138896 -7 43 C-8.65 43 -10.3 43 -12 43 C-13.48312372 16.08415671 -13.48312372 16.08415671 -8.125 9.0625 C-6.77133721 7.68700394 -5.39929386 6.32904818 -4 5 C-3.31545385 3.67575728 -2.64451104 2.34418293 -2 1 C-1.34 0.67 -0.68 0.34 0 0 Z " fill="#F4F9F2" transform="translate(63,46)"/>
<path d="M0 0 C1.67542976 0.28604898 3.34385343 0.61781233 5 1 C5.125 7.625 5.125 7.625 4 11 C5.98 11 7.96 11 10 11 C9.67 10.443125 9.34 9.88625 9 9.3125 C7.84750995 6.64736676 7.69725595 4.87606851 8 2 C8.66 1.34 9.32 0.68 10 0 C11.65 0.33 13.3 0.66 15 1 C14.67 5.29 14.34 9.58 14 14 C13.67 13.34 13.34 12.68 13 12 C12.01 12.495 12.01 12.495 11 13 C9.12620395 13.07033769 7.24998898 13.0843022 5.375 13.0625 C4.37210938 13.05347656 3.36921875 13.04445313 2.3359375 13.03515625 C1.56507812 13.02355469 0.79421875 13.01195312 0 13 C-1.16665907 8.87965644 -1.14001682 5.27051305 -1 1 C-0.67 0.67 -0.34 0.34 0 0 Z " fill="#CEE8C4" transform="translate(47,36)"/>
<path d="M0 0 C3.82946843 1.45255699 5.12050295 3.42895561 7 7 C5.68 7 4.36 7 3 7 C0.58152803 4.49515403 0 3.53986194 0 0 Z " fill="#53AF31" transform="translate(71,73)"/>
<path d="M0 0 C0.66 0 1.32 0 2 0 C1.50168276 3.68754757 0.89932357 5.60490662 -2 8 C-2.99 7.67 -3.98 7.34 -5 7 C-3.47793991 4.37098712 -2.15634036 2.15634036 0 0 Z " fill="#53AF31" transform="translate(26,73)"/>
<path d="M0 0 C5.66153846 1.47692308 5.66153846 1.47692308 7.375 4.125 C7.58125 4.74375 7.7875 5.3625 8 6 C3.68607774 5.5206753 1.83430453 4.2542015 -1 1 C-0.67 0.67 -0.34 0.34 0 0 Z " fill="#53AF31" transform="translate(79,64)"/>
<path d="M0 0 C-2.83430453 3.2542015 -4.68607774 4.5206753 -9 5 C-8.00233891 2.50584728 -7.31383315 1.21259665 -5.0625 -0.3125 C-3 -1 -3 -1 0 0 Z " fill="#53AF31" transform="translate(21,65)"/>
<path d="M0 0 C0.99 0 1.98 0 3 0 C2.44225728 3.23490776 1.62788492 4.97855006 -1 7 C-1.99 7 -2.98 7 -4 7 C-2.92598892 4.08482708 -2.22189824 2.22189824 0 0 Z " fill="#53AF31" transform="translate(74,16)"/>
<path d="M0 0 C2.79828356 0.38597015 3.8205884 0.80136573 5.75 2.9375 C7 5 7 5 7 7 C3.76509224 6.44225728 2.02144994 5.62788492 0 3 C0 2.01 0 1.02 0 0 Z " fill="#53AF31" transform="translate(22,16)"/>
<path d="M0 0 C0.99 0 1.98 0 3 0 C3 2.97 3 5.94 3 9 C2.01 9 1.02 9 0 9 C0 6.03 0 3.06 0 0 Z " fill="#53AF31" transform="translate(48,6)"/>
<path d="M0 0 C6.75 -0.125 6.75 -0.125 9 1 C9 1.99 9 2.98 9 4 C6.36 3.67 3.72 3.34 1 3 C0.67 2.01 0.34 1.02 0 0 Z " fill="#53AF31" transform="translate(82,53)"/>
<path d="M0 0 C-0.33 0.99 -0.66 1.98 -1 3 C-3.64 3.33 -6.28 3.66 -9 4 C-9 3.01 -9 2.02 -9 1 C-6.04335481 -0.4783226 -3.25770263 -0.06032783 0 0 Z " fill="#53AF31" transform="translate(17,53)"/>
<path d="M0 0 C-0.3125 1.875 -0.3125 1.875 -1 4 C-4 6 -4 6 -8 6 C-6.72879117 2.18637351 -4.19078006 0 0 0 Z " fill="#53AF31" transform="translate(86,26)"/>
<path d="M0 0 C2.9719385 1.12451727 5.33440687 2.22293791 8 4 C8 4.66 8 5.32 8 6 C4.62537285 5.45276317 2.91765 4.9451 0 3 C0 2.01 0 1.02 0 0 Z " fill="#53AF31" transform="translate(13,26)"/>
<path d="M0 0 C0.66 0.33 1.32 0.66 2 1 C1.47731534 3.76276177 0.89130413 6.3260876 0 9 C-0.99 9 -1.98 9 -3 9 C-2.5020163 5.26512223 -2.12508244 3.18762365 0 0 Z " fill="#53AF31" transform="translate(63,8)"/>
<path d="M0 0 C2.52259061 1.97420135 2.9929808 2.96745642 3.6875 6.1875 C3.790625 7.115625 3.89375 8.04375 4 9 C3.01 9 2.02 9 1 9 C-1.09230769 4.56923077 -1.09230769 4.56923077 -0.625 1.6875 C-0.41875 1.130625 -0.2125 0.57375 0 0 Z " fill="#53AF31" transform="translate(35,8)"/>
<path d="M0 0 C2.0625 0.4375 2.0625 0.4375 4 1 C3.34 3.31 2.68 5.62 2 8 C1.34 7.67 0.68 7.34 0 7 C-0.6875 4 -0.6875 4 -1 1 C-0.67 0.67 -0.34 0.34 0 0 Z " fill="#A1D38E" transform="translate(37,36)"/>
<path d="M0 0 C-0.33 0.99 -0.66 1.98 -1 3 C-3.64 3 -6.28 3 -9 3 C-9 2.34 -9 1.68 -9 1 C-5.8035914 -0.06546953 -3.34252724 -0.07427838 0 0 Z " fill="#53AF31" transform="translate(91,40)"/>
<path d="M0 0 C2.97 0.33 5.94 0.66 9 1 C9 1.66 9 2.32 9 3 C6.36 3 3.72 3 1 3 C0.67 2.01 0.34 1.02 0 0 Z " fill="#53AF31" transform="translate(8,40)"/>
<path d="M0 0 C1.65 0.33 3.3 0.66 5 1 C5 3.31 5 5.62 5 8 C4.34 7.67 3.68 7.34 3 7 C3 5.35 3 3.7 3 2 C2.01 2.33 1.02 2.66 0 3 C0 2.01 0 1.02 0 0 Z " fill="#EFF7EC" transform="translate(57,36)"/>
</svg>
