<?xml version="1.0" encoding="UTF-8"?>
<svg version="1.1" xmlns="http://www.w3.org/2000/svg" width="139" height="126">
<path d="M0 0 C2.74209211 2.97712858 3.8031312 5.58620118 5.1875 9.375 C5.8475 9.045 6.5075 8.715 7.1875 8.375 C7.8475 9.365 8.5075 10.355 9.1875 11.375 C11.50990031 11.81152597 11.50990031 11.81152597 14.1875 11.8125 C25.34384469 12.61249864 32.63213171 17.22915888 40.1875 25.375 C47.73990271 35.12060631 48.21854758 45.48892865 47.1875 57.375 C45.45766441 66.43051515 39.20070581 73.55243057 32 79.04296875 C22.96916634 84.87538215 13.48019949 86.62484777 2.875 84.75 C-6.64759477 82.38168627 -14.12012909 77.32283863 -19.8125 69.375 C-20.3075 68.385 -20.3075 68.385 -20.8125 67.375 C-22.73832109 66.94872931 -22.73832109 66.94872931 -25 66.6875 C-29.66840448 65.7508456 -31.71814879 64.00459057 -34.62109375 60.32421875 C-39.95078357 51.60449671 -39.26034805 38.82510896 -36.9375 29.11328125 C-33.15811152 17.01675169 -27.20075717 6.8606559 -16.8125 -0.625 C-11.1062523 -3.53635087 -5.49122446 -3.17270746 0 0 Z " fill="#BFF89B" transform="translate(64.8125,21.625)"/>
<path d="M0 0 C5.11120629 5.54930969 5.61570419 11.10988989 5.375 18.3125 C5.35469727 19.48135742 5.35469727 19.48135742 5.33398438 20.67382812 C5.29900224 22.57452404 5.24520959 24.47485834 5.1875 26.375 C4.59735107 26.35405273 4.00720215 26.33310547 3.39916992 26.31152344 C0.72462001 26.22836317 -1.94965815 26.17634309 -4.625 26.125 C-5.55376953 26.09148438 -6.48253906 26.05796875 -7.43945312 26.0234375 C-8.33212891 26.01054688 -9.22480469 25.99765625 -10.14453125 25.984375 C-10.96671143 25.96342773 -11.7888916 25.94248047 -12.63598633 25.92089844 C-14.96004639 26.19473019 -14.96004639 26.19473019 -16.5534668 28.15722656 C-18.07997279 30.84615045 -18.65471798 33.25073301 -18.5625 36.3515625 C-16.9299667 40.75600131 -11.75286005 42.3416539 -7.8125 44.375 C-6.11319152 45.66647445 -4.42542369 46.9771328 -2.8125 48.375 C-5.343802 56.72829659 -11.82753992 61.62015364 -19.1875 65.6875 C-22.94117431 66.67060518 -26.1891526 66.71514219 -29.8125 65.375 C-34.22465442 61.75800308 -37.38201527 57.09038686 -38.04785156 51.34375 C-39.01061133 34.99761287 -36.32246212 20.50720816 -25.8125 7.375 C-18.48840886 -0.42202548 -10.28698798 -5.94359306 0 0 Z " fill="#43D30D" transform="translate(64.8125,21.625)"/>
<path d="M0 0 C2.78163445 2.55567535 4.06905041 5.21552778 5.703125 8.609375 C8.8009416 14.31980801 12.5672545 20.13742922 17.75 24.10546875 C18.86375 25.04326172 18.86375 25.04326172 20 26 C20.11649312 32.64010765 17.68706661 38.97691485 15 45 C12.50883621 47.49116379 11.38903963 47.35119762 7.9375 47.75 C1.47884236 48.69957178 -4.32171644 50.72776159 -10.38696289 53.05566406 C-12.23968261 53.75435288 -14.11839329 54.38332129 -16 55 C-16.66 54.67 -17.32 54.34 -18 54 C-17.57589844 53.63390625 -17.15179688 53.2678125 -16.71484375 52.890625 C-7.45636607 44.34433791 -0.58277558 31.99684264 0.15869141 19.27783203 C0.32969476 12.84789594 0.22500412 6.4273292 0 0 Z " fill="#45D30F" transform="translate(71,30)"/>
<path d="M0 0 C0.66 0 1.32 0 2 0 C2.6418173 15.88497817 1.17227631 29.90112912 -9 43 C-9.99 43 -10.98 43 -12 43 C-11.484375 42.236875 -10.96875 41.47375 -10.4375 40.6875 C-9.963125 39.800625 -9.48875 38.91375 -9 38 C-10.30118074 34.09645778 -11.90383582 33.54661944 -15.375 31.4375 C-16.35210937 30.83808594 -17.32921875 30.23867187 -18.3359375 29.62109375 C-19.21507812 29.08613281 -20.09421875 28.55117188 -21 28 C-21.99 27.34 -22.98 26.68 -24 26 C-24.5194062 21.47374601 -24.65668521 19.31337043 -22.61328125 15.2265625 C-19.12342717 12.25314422 -16.9804369 12.61026884 -12.5390625 12.91601562 C-11.15847656 13.05040039 -11.15847656 13.05040039 -9.75 13.1875 C-8.81414063 13.25775391 -7.87828125 13.32800781 -6.9140625 13.40039062 C-4.60746948 13.5769156 -2.30336147 13.78538791 0 14 C0 9.38 0 4.76 0 0 Z " fill="#B0F48A" transform="translate(70,34)"/>
<path d="M0 0 C5.12583611 -0.10251672 9.94997778 -0.03590199 15 1 C14.46246904 7.18160604 12.45417612 12.326858 10 18 C6.50155614 17.36610765 4.15913124 15.94822306 1.25 13.9375 C0.45078125 13.38964844 -0.3484375 12.84179688 -1.171875 12.27734375 C-1.77515625 11.85582031 -2.3784375 11.43429688 -3 11 C-2.68289062 10.24332031 -2.36578125 9.48664062 -2.0390625 8.70703125 C-0.92602177 5.80726725 -0.42822208 3.06892488 0 0 Z " fill="#46D410" transform="translate(54,50)"/>
<path d="M0 0 C3.27214877 0.56416358 4.93823695 1.37377733 7 4 C7.47520931 9.42358455 5.80076702 14.40674208 3 19 C1 21 1 21 -2 21.25 C-5 21 -5 21 -7 19 C-6.66226563 18.21496094 -6.32453125 17.42992188 -5.9765625 16.62109375 C-3.64741682 11.1348113 -1.44653232 5.78612928 0 0 Z " fill="#48D413" transform="translate(93,58)"/>
<path d="M0 0 C2.97 0.33 5.94 0.66 9 1 C8.52494322 2.81358154 8.04483958 4.62584179 7.5625 6.4375 C7.29566406 7.44683594 7.02882813 8.45617187 6.75390625 9.49609375 C6 12 6 12 5 13 C2.66055264 12.71269945 0.3260857 12.38063221 -2 12 C-3.6442351 7.06729471 -2.18615592 4.45975807 0 0 Z " fill="#47D412" transform="translate(85,80)"/>
<path d="M0 0 C1.64448449 0.21882253 3.28539878 0.46596138 4.921875 0.73828125 C6.18257812 0.91520508 6.18257812 0.91520508 7.46875 1.09570312 C9.54003156 1.38991926 11.60656975 1.71718771 13.671875 2.05078125 C13.671875 2.38078125 13.671875 2.71078125 13.671875 3.05078125 C9.051875 3.05078125 4.431875 3.05078125 -0.328125 3.05078125 C-0.328125 5.03078125 -0.328125 7.01078125 -0.328125 9.05078125 C-1.318125 10.53578125 -1.318125 10.53578125 -2.328125 12.05078125 C-2.988125 12.05078125 -3.648125 12.05078125 -4.328125 12.05078125 C-4.658125 13.04078125 -4.988125 14.03078125 -5.328125 15.05078125 C-6.318125 14.39078125 -7.308125 13.73078125 -8.328125 13.05078125 C-8.85245954 8.48158024 -8.99893964 6.34901551 -6.87890625 2.24609375 C-4.00341601 -0.22867733 -3.5869188 -0.24503605 0 0 Z " fill="#BBF796" transform="translate(54.328125,46.94921875)"/>
<path d="M0 0 C0.66 0 1.32 0 2 0 C2 5.94 2 11.88 2 18 C1.01 18.33 0.02 18.66 -1 19 C-1 18.34 -1 17.68 -1 17 C-2.98 17 -4.96 17 -7 17 C-7 16.67 -7 16.34 -7 16 C-8.65 15.67 -10.3 15.34 -12 15 C-12 14.67 -12 14.34 -12 14 C-8.04 14 -4.08 14 0 14 C0 9.38 0 4.76 0 0 Z " fill="#A1EF78" transform="translate(70,34)"/>
<path d="M0 0 C0.66 0.66 1.32 1.32 2 2 C1.67252316 6.84665725 0.40780465 11.43729514 -3 15 C-4.57156655 11.8568669 -3.11705576 9.634536 -2.0625 6.375 C-1.68222656 5.18648438 -1.30195312 3.99796875 -0.91015625 2.7734375 C-0.60980469 1.85820313 -0.30945313 0.94296875 0 0 Z " fill="#B2F48B" transform="translate(90,60)"/>
<path d="M0 0 C2.8290723 2.8290723 3.37611108 3.38144425 4 7 C3.34 7 2.68 7 2 7 C2 10.3 2 13.6 2 17 C1.67 17 1.34 17 1 17 C0.67 11.39 0.34 5.78 0 0 Z " fill="#58D925" transform="translate(71,30)"/>
</svg>
