<?xml version="1.0" encoding="UTF-8"?>
<svg version="1.1" xmlns="http://www.w3.org/2000/svg" width="16" height="16">
<path d="M0 0 C0.92232422 0.00451172 1.84464844 0.00902344 2.79492188 0.01367188 C5.05085048 0.02536062 7.30663967 0.04174545 9.5625 0.0625 C6.3618935 3.3489904 3.09242446 6.33740156 -0.5 9.1875 C-22.15851992 26.76500675 -40.16251884 48.03251306 -51.51808167 73.7204895 C-51.87769769 74.53299227 -52.23731371 75.34549503 -52.60782719 76.18261909 C-52.88161922 76.80297979 -53.15541124 77.42334049 -53.4375 78.0625 C-52.87540612 78.06038403 -52.31331224 78.05826806 -51.73418522 78.05608797 C-17.99335996 77.92911121 15.7474709 77.80374662 49.48830932 77.68031773 C53.59116459 77.66530757 57.69401981 77.65028469 61.796875 77.63525391 C62.6132623 77.63226329 63.4296496 77.62927268 64.27077591 77.62619144 C75.67968852 77.5843717 87.0885984 77.54186957 98.49750638 77.49880803 C118.1649981 77.42457621 137.83249433 77.35169609 157.5 77.28125 C158.26456733 77.27850838 159.02913465 77.27576676 159.81687069 77.27294207 C208.73213555 77.09777292 257.64687628 76.98266066 306.5625 77.0625 C306.5625 77.7225 306.5625 78.3825 306.5625 79.0625 C307.55490189 79.05583817 307.55490189 79.05583817 308.56735229 79.04904175 C315.54471646 79.00429063 322.52203893 78.97442226 329.49951172 78.95263672 C332.09262756 78.94266938 334.68573244 78.92909065 337.27880859 78.91162109 C356.25269031 78.78713017 374.48977475 79.11813982 393 83.6875 C394.05566162 83.94692383 395.11132324 84.20634766 396.19897461 84.47363281 C417.98439714 90.0776212 436.6318436 100.18063581 452.5625 116.0625 C453.84640625 117.32320312 453.84640625 117.32320312 455.15625 118.609375 C477.25363603 141.13722959 484.39162376 171.41361838 484.66015625 202.13671875 C484.32423478 236.64501505 472.93136716 268.42462508 448.09057617 292.88598633 C437.79058839 302.71324161 416.97144055 319.0625 401.5625 319.0625 C404.47051323 323.62828799 407.6848589 327.68328828 411.25 331.75 C412.32650176 332.99133751 413.40201409 334.23353371 414.4765625 335.4765625 C415.00282227 336.08532227 415.52908203 336.69408203 416.07128906 337.32128906 C418.87186174 340.59137491 421.57132978 343.94317465 424.28515625 347.28515625 C426.84454054 350.40646367 429.44843791 353.4870003 432.0625 356.5625 C436.18357792 361.41204051 440.23241483 366.31410964 444.25 371.25 C447.27976875 374.93485389 450.36308993 378.57268628 453.46118164 382.20019531 C455.72958532 384.86364235 457.96119695 387.54441047 460.12109375 390.296875 C460.90613281 391.29203125 461.69117188 392.2871875 462.5 393.3125 C463.18964844 394.20453125 463.87929688 395.0965625 464.58984375 396.015625 C466.76187856 398.26937993 467.55735767 398.58384638 470.5625 399.0625 C472.6151398 398.96186755 472.6151398 398.96186755 474.7557373 398.55996704 C475.58640213 398.42289337 476.41706696 398.2858197 477.27290344 398.14459229 C478.17735703 397.98682312 479.08181061 397.82905396 480.01367188 397.66650391 C480.97436081 397.5055423 481.93504974 397.34458069 482.92485046 397.17874146 C486.1283509 396.63995653 489.32974046 396.08954432 492.53125 395.5390625 C494.79981145 395.15494786 497.06849065 394.77152806 499.33728027 394.38876343 C505.36186491 393.37030862 511.38471655 392.3419311 517.4072876 391.31164551 C523.3212537 390.30180669 529.23688773 389.30184781 535.15234375 388.30078125 C554.30468885 385.05546134 573.45213886 381.78278371 592.58984375 378.45214844 C593.80218437 378.24136595 595.01452499 378.03058346 596.26360321 377.81341362 C602.07077435 376.8035336 607.87744197 375.79091781 613.68322754 374.77310181 C615.74909048 374.41294264 617.81496698 374.05286126 619.88085938 373.69287109 C621.29452034 373.44344316 621.29452034 373.44344316 622.73674011 373.18897629 C623.59749649 373.03947147 624.45825287 372.88996666 625.34509277 372.7359314 C626.09178978 372.60507833 626.83848679 372.47422527 627.60781097 372.33940697 C629.5625 372.0625 629.5625 372.0625 632.5625 372.0625 C631.97384843 377.83311286 630.39639491 382.78268559 628.34375 388.19140625 C627.84959595 389.51941505 627.84959595 389.51941505 627.34545898 390.87425232 C626.25756287 393.79361194 625.1599665 396.7092262 624.0625 399.625 C623.29157447 401.68917569 622.52140501 403.75363391 621.75195312 405.81835938 C620.15266936 410.10803516 618.55013701 414.39647618 616.9453125 418.68408203 C613.63911487 427.52464702 610.37253103 436.37978592 607.10586548 445.23501587 C605.35769195 449.97250529 603.60637583 454.70883284 601.85546875 459.4453125 C599.26719034 466.44836792 596.67988247 473.45178117 594.09341431 480.45550537 C592.55694232 484.6159186 591.02018071 488.77622482 589.48339844 492.93652344 C588.75783129 494.9009885 588.03240271 496.86550474 587.30712891 498.83007812 C586.79351807 500.22129883 586.79351807 500.22129883 586.26953125 501.640625 C585.93537201 502.54588928 585.60121277 503.45115356 585.25692749 504.3838501 C584.29596887 506.98317561 583.33092214 509.58095784 582.36572266 512.17871094 C581.17123525 515.39832817 580.00084004 518.62520098 578.84912109 521.86035156 C578.58008469 522.60543976 578.31104828 523.35052795 578.03385925 524.11819458 C577.53497403 525.50061624 577.04363015 526.88579324 576.56147766 528.2741394 C575.29356317 531.75761063 574.75314216 532.93540523 571.5625 535.0625 C566.17765318 529.19390807 560.99143342 523.21397439 555.98046875 517.0234375 C551.58382454 511.63950161 547.06591455 506.35716869 542.5625 501.0625 C537.67825941 502.73874825 533.58658232 505.44919058 529.25 508.1875 C494.75664798 529.52705172 451.24529213 543.52784761 410.5625 534.0625 C386.24266221 528.23640643 364.67116438 518.35477542 345.5625 502.0625 C344.9540625 501.58683594 344.345625 501.11117188 343.71875 500.62109375 C337.29323013 495.49528131 332.10520496 488.87655745 327.5625 482.0625 C334.06583771 482.72610589 340.38570739 484.00014861 346.78125 485.34375 C356.39568032 487.17128634 365.87176124 487.29950568 375.625 487.3125 C376.81796692 487.31600464 376.81796692 487.31600464 378.03503418 487.31958008 C391.40588894 487.33438797 404.37163637 486.36132271 417.5625 484.0625 C411.92303796 476.70780988 406.25670285 469.37488418 400.5625 462.0625 C394.86872082 454.74969111 389.20517945 447.41479922 383.5625 440.0625 C381.89640747 437.89539153 380.22947902 435.72892661 378.5625 433.5625 C376.10777885 430.37231395 373.65385583 427.18153483 371.203125 423.98828125 C365.7415929 416.87579582 360.24487869 409.79143394 354.73535156 402.71606445 C350.53210334 397.31588365 346.35456695 391.896903 342.1875 386.46875 C338.99622009 382.32008611 335.77825864 378.19219753 332.5625 374.0625 C326.86873093 366.74968951 321.20476892 359.41511074 315.5625 352.0625 C313.83395073 349.81202506 312.10456817 347.56219192 310.375 345.3125 C309.61832031 344.32765625 308.86164063 343.3428125 308.08203125 342.328125 C304.92058849 338.23050307 301.73991557 334.14774859 298.5625 330.0625 C298.2325 382.5325 297.9025 435.0025 297.5625 489.0625 C256.46236133 489.10280303 256.46236133 489.10280303 238.5234375 489.11132812 C226.39257357 489.11714125 214.2617168 489.12375356 202.13085938 489.13793945 C193.27514534 489.14828994 184.4194374 489.15444273 175.56371748 489.15658849 C170.9262024 489.15783173 166.28870466 489.16045897 161.65119553 489.16823006 C115.94953628 489.23540894 70.26515264 488.54869843 24.5625 488.0625 C24.5625 380.1525 24.5625 272.2425 24.5625 161.0625 C10.7025 161.3925 -3.1575 161.7225 -17.4375 162.0625 C-25.6165094 171.94461888 -25.6165094 171.94461888 -30.48046875 182.37109375 C-33.08517547 189.48647542 -36.52022897 195.73024119 -40.5 202.1875 C-41.6536126 204.14800568 -42.80204228 206.1115702 -43.9453125 208.078125 C-44.51668945 209.05587891 -45.08806641 210.03363281 -45.67675781 211.04101562 C-50.66560338 219.60201851 -55.60061589 228.19434388 -60.54638672 236.78027344 C-64.29319979 243.28326271 -68.0446563 249.78357578 -71.796875 256.28344727 C-75.0148657 261.85885227 -78.22810752 267.4369281 -81.43359375 273.01953125 C-92.79614447 292.79687356 -92.79614447 292.79687356 -97.25 300.1875 C-97.83394531 301.15945313 -98.41789062 302.13140625 -99.01953125 303.1328125 C-99.48746094 303.76960938 -99.95539063 304.40640625 -100.4375 305.0625 C-101.0975 305.0625 -101.7575 305.0625 -102.4375 305.0625 C-102.84363525 304.3504541 -103.24977051 303.6384082 -103.66821289 302.90478516 C-116.40568856 280.57894483 -129.20345904 258.28965842 -142.1706543 236.09619141 C-149.6338254 223.31505262 -157.0119911 210.48482749 -164.39746094 197.65869141 C-165.70538391 195.38749645 -167.0136494 193.11649871 -168.32226562 190.84570312 C-169.59282592 188.64056656 -170.86238138 186.43485067 -172.13085938 184.22851562 C-174.91590136 179.39258893 -177.71782644 174.57081589 -180.6015625 169.79296875 C-181.07489014 169.00543213 -181.54821777 168.21789551 -182.03588867 167.40649414 C-182.89807902 165.97778894 -183.76749197 164.5534049 -184.64575195 163.13452148 C-186.69886203 159.72950376 -187.4375 158.15217352 -187.4375 154.0625 C-164.6675 153.5675 -164.6675 153.5675 -141.4375 153.0625 C-140.880625 148.999375 -140.32375 144.93625 -139.75 140.75 C-138.08257444 129.24655954 -135.91251019 118.15435684 -132.4375 107.0625 C-132.18097656 106.24201172 -131.92445313 105.42152344 -131.66015625 104.57617188 C-119.47661104 66.36414371 -95.59695218 34.17423131 -59.80078125 15.1953125 C-41.23825648 5.84333165 -20.84377615 -0.19508214 0 0 Z M306.5625 154.0625 C306.5625 156.0425 306.5625 158.0225 306.5625 160.0625 C302.1075 160.5575 302.1075 160.5575 297.5625 161.0625 C297.5625 194.0625 297.5625 227.0625 297.5625 261.0625 C337.15672255 262.39358243 337.15672255 262.39358243 372.3125 246.0625 C382.88014113 234.65454042 385.60974754 219.03322118 385.5625 204.0625 C384.75996229 189.61682124 379.9915775 176.88346805 369.375 166.875 C352.04404221 152.97255777 327.46066448 153.87333683 306.5625 154.0625 Z " fill="#0E0A2E" transform="translate(235.4375,106.9375)"/>
<path d="M0 0 C8.58189877 -0.11747049 17.16344452 -0.20549309 25.74595642 -0.25906086 C29.73409033 -0.28481124 33.72166218 -0.31954743 37.70947266 -0.37719727 C56.7395889 -0.64496351 74.50850834 -0.18601253 93 5 C93.75423752 5.20987549 94.50847504 5.41975098 95.28556824 5.63598633 C114.48439309 11.08200258 131.62988165 21.21533091 146 35 C146.886875 35.845625 147.77375 36.69125 148.6875 37.5625 C149.450625 38.366875 150.21375 39.17125 151 40 C151.51820313 40.53496094 152.03640625 41.06992188 152.5703125 41.62109375 C173.7121399 64.42203317 179.67828944 96.86741893 179 127 C177.2150018 161.40146525 165.10329686 192.03652325 139.47607422 215.68798828 C129.71638535 224.36290856 110.022926 239 96 239 C98.90801323 243.56578799 102.1223589 247.62078828 105.6875 251.6875 C106.76400176 252.92883751 107.83951409 254.17103371 108.9140625 255.4140625 C109.44032227 256.02282227 109.96658203 256.63158203 110.50878906 257.25878906 C113.30936174 260.52887491 116.00882978 263.88067465 118.72265625 267.22265625 C121.28204054 270.34396367 123.88593791 273.4245003 126.5 276.5 C130.62107792 281.34954051 134.66991483 286.25160964 138.6875 291.1875 C141.71726875 294.87235389 144.80058993 298.51018628 147.89868164 302.13769531 C150.16708532 304.80114235 152.39869695 307.48191047 154.55859375 310.234375 C155.34363281 311.22953125 156.12867188 312.2246875 156.9375 313.25 C157.62714844 314.14203125 158.31679688 315.0340625 159.02734375 315.953125 C161.19937856 318.20687993 161.99485767 318.52134638 165 319 C167.0526398 318.89936755 167.0526398 318.89936755 169.1932373 318.49746704 C170.02390213 318.36039337 170.85456696 318.2233197 171.71040344 318.08209229 C172.61485703 317.92432312 173.51931061 317.76655396 174.45117188 317.60400391 C175.41186081 317.4430423 176.37254974 317.28208069 177.36235046 317.11624146 C180.5658509 316.57745653 183.76724046 316.02704432 186.96875 315.4765625 C189.23731145 315.09244786 191.50599065 314.70902806 193.77478027 314.32626343 C199.79936491 313.30780862 205.82221655 312.2794311 211.8447876 311.24914551 C217.7587537 310.23930669 223.67438773 309.23934781 229.58984375 308.23828125 C248.74218885 304.99296134 267.88963886 301.72028371 287.02734375 298.38964844 C288.23968437 298.17886595 289.45202499 297.96808346 290.70110321 297.75091362 C296.50827435 296.7410336 302.31494197 295.72841781 308.12072754 294.71060181 C310.18659048 294.35044264 312.25246698 293.99036126 314.31835938 293.63037109 C315.73202034 293.38094316 315.73202034 293.38094316 317.17424011 293.12647629 C318.03499649 292.97697147 318.89575287 292.82746666 319.78259277 292.6734314 C320.90263828 292.4771518 320.90263828 292.4771518 322.04531097 292.27690697 C324 292 324 292 327 292 C326.41134843 297.77061286 324.83389491 302.72018559 322.78125 308.12890625 C322.45181396 309.01424545 322.12237793 309.89958466 321.78295898 310.81175232 C320.69506287 313.73111194 319.5974665 316.6467262 318.5 319.5625 C317.72907447 321.62667569 316.95890501 323.69113391 316.18945312 325.75585938 C314.59016936 330.04553516 312.98763701 334.33397618 311.3828125 338.62158203 C308.07661487 347.46214702 304.81003103 356.31728592 301.54336548 365.17251587 C299.79519195 369.91000529 298.04387583 374.64633284 296.29296875 379.3828125 C293.70469034 386.38586792 291.11738247 393.38928117 288.53091431 400.39300537 C286.99444232 404.5534186 285.45768071 408.71372482 283.92089844 412.87402344 C283.19533129 414.8384885 282.46990271 416.80300474 281.74462891 418.76757812 C281.23101807 420.15879883 281.23101807 420.15879883 280.70703125 421.578125 C280.37287201 422.48338928 280.03871277 423.38865356 279.69442749 424.3213501 C278.73346887 426.92067561 277.76842214 429.51845784 276.80322266 432.11621094 C275.60873525 435.33582817 274.43834004 438.56270098 273.28662109 441.79785156 C273.01758469 442.54293976 272.74854828 443.28802795 272.47135925 444.05569458 C271.97247403 445.43811624 271.48113015 446.82329324 270.99897766 448.2116394 C269.73106317 451.69511063 269.19064216 452.87290523 266 455 C260.61515318 449.13140807 255.42893342 443.15147439 250.41796875 436.9609375 C246.02132454 431.57700161 241.50341455 426.29466869 237 421 C232.11575941 422.67624825 228.02408232 425.38669058 223.6875 428.125 C189.19414798 449.46455172 145.68279213 463.46534761 105 454 C80.68016221 448.17390643 59.10866438 438.29227542 40 422 C39.3915625 421.52433594 38.783125 421.04867188 38.15625 420.55859375 C31.73073013 415.43278131 26.54270496 408.81405745 22 402 C28.50333771 402.66360589 34.82320739 403.93764861 41.21875 405.28125 C50.83318032 407.10878634 60.30926124 407.23700568 70.0625 407.25 C71.25546692 407.25350464 71.25546692 407.25350464 72.47253418 407.25708008 C85.84338894 407.27188797 98.80913637 406.29882271 112 404 C106.36053796 396.64530988 100.69420285 389.31238418 95 382 C89.30622082 374.68719111 83.64267945 367.35229922 78 360 C76.33390747 357.83289153 74.66697902 355.66642661 73 353.5 C70.54527885 350.30981395 68.09135583 347.11903483 65.640625 343.92578125 C60.1790929 336.81329582 54.68237869 329.72893394 49.17285156 322.65356445 C44.96960334 317.25338365 40.79206695 311.834403 36.625 306.40625 C33.43372009 302.25758611 30.21575864 298.12969753 27 294 C21.30623093 286.68718951 15.64226892 279.35261074 10 272 C8.70178339 270.30979424 7.40320599 268.61986832 6.10400391 266.93041992 C5.25507101 265.82584428 4.40706115 264.7205585 3.56005859 263.61450195 C1.67080381 261.15106189 -0.23612123 258.70685486 -2.18359375 256.2890625 C-2.82425781 255.49242187 -3.46492187 254.69578125 -4.125 253.875 C-4.68445313 253.19179688 -5.24390625 252.50859375 -5.8203125 251.8046875 C-7 250 -7 250 -7 247 C-7.66 247 -8.32 247 -9 247 C-9 300.13 -9 353.26 -9 408 C-37.71 408 -66.42 408 -96 408 C-96 300.09 -96 192.18 -96 81 C-67.29 81 -38.58 81 -9 81 C-9 114 -9 147 -9 181 C31.69958455 181.66215002 31.69958455 181.66215002 67.375 163.8125 C77.56527561 151.4296446 79.65153042 135.72754755 78.7890625 120.203125 C77.26026805 107.22279478 72.54640462 96.54640462 63.3125 87.3125 C48.58727153 76.03199079 29.35291024 75.45103684 11.65551758 74.5949707 C10.96186096 74.56072998 10.26820435 74.52648926 9.55352783 74.49121094 C7.63500476 74.39931398 5.71606525 74.31623584 3.79711914 74.23364258 C1 74 1 74 0 73 C-0.09439978 70.73008113 -0.11742226 68.45718033 -0.11352539 66.18530273 C-0.11367142 65.47314606 -0.11381744 64.76098938 -0.1139679 64.0272522 C-0.1132687 61.66266888 -0.10547606 59.29816339 -0.09765625 56.93359375 C-0.09579209 55.29834537 -0.09436818 53.66309643 -0.09336853 52.02784729 C-0.08954318 47.71565215 -0.07971275 43.40349048 -0.06866455 39.09130859 C-0.0584508 34.69434054 -0.05387099 30.29736711 -0.04882812 25.90039062 C-0.03809049 17.26691169 -0.02101387 8.63346 0 0 Z " fill="#0E0A2E" transform="translate(541,187)"/>
<path d="M0 0 C0.33 0 0.66 0 1 0 C1 107.58 1 215.16 1 326 C31.69 326 62.38 326 94 326 C94 218.42 94 110.84 94 0 C123.7 0 153.4 0 184 0 C184 107.58 184 215.16 184 326 C182.68 326 181.36 326 180 326 C179.67 326.66 179.34 327.32 179 328 C169.54082877 328.02453445 160.08167016 328.04155735 150.62247276 328.05181217 C146.21737844 328.05676441 141.81230731 328.06325829 137.40722656 328.07543945 C91.5987652 328.19111739 45.81015292 327.48734205 0 327 C0 219.09 0 111.18 0 0 Z " fill="#6DC207" transform="translate(260,268)"/>
<path d="M0 0 C119.13 0 238.26 0 361 0 C361 0.66 361 1.32 361 2 C379.48 2 397.96 2 417 2 C417 2.33 417 2.66 417 3 C398.19 3 379.38 3 360 3 C360.14907958 15.80376724 360.14907958 15.80376724 360.30664062 28.60742188 C360.37282202 33.83257346 360.43802865 39.05772402 360.49731445 44.28295898 C360.54519597 48.49755323 360.59754575 52.71207084 360.65294075 56.9265728 C360.67325702 58.53122476 360.69198706 60.13589764 360.70907402 61.74058723 C360.73335734 63.99518482 360.7633766 66.24964077 360.79467773 68.50415039 C360.81022202 69.78544327 360.8257663 71.06673615 360.84178162 72.38685608 C360.9409501 76.06105904 360.9409501 76.06105904 361.57533264 79.9059906 C361.71547287 80.9270137 361.8556131 81.9480368 362 83 C361 84 361 84 357.42503357 84.08229065 C355.79428576 84.06732495 354.16358515 84.04664243 352.53295898 84.02172852 C351.64523804 84.01212097 350.75751709 84.00251343 349.84289551 83.99261475 C346.893884 83.95950086 343.94501498 83.91921605 340.99609375 83.87890625 C338.95728567 83.85461723 336.91847224 83.83077307 334.87965393 83.80735779 C329.50210502 83.74439564 324.12465022 83.67536358 318.74719238 83.60510254 C312.30121617 83.52212959 305.85514865 83.44663324 299.40909576 83.36989594 C289.60598152 83.25235099 279.80303239 83.1252599 270 83 C270 56.27 270 29.54 270 2 C180.9 2 91.8 2 0 2 C0 1.34 0 0.68 0 0 Z " fill="#6EC207" transform="translate(181,184)"/>
<path d="M0 0 C12.00469958 -0.81387794 22.3585286 3.92457644 33 9 C35.32459063 10.02233305 37.66046592 11.01219672 40 12 C40 12.66 40 13.32 40 14 C40.598125 14.144375 41.19625 14.28875 41.8125 14.4375 C43.56150404 14.8872439 45.28677023 15.42892341 47 16 C47 16.66 47 17.32 47 18 C47.99 18 48.98 18 50 18 C50 18.66 50 19.32 50 20 C51.65 20.66 53.3 21.32 55 22 C55 22.66 55 23.32 55 24 C55.99 24 56.98 24 58 24 C58 24.66 58 25.32 58 26 C58.66 26 59.32 26 60 26 C60 26.66 60 27.32 60 28 C60.556875 28.2475 61.11375 28.495 61.6875 28.75 C64.42410913 30.22924818 66.67650869 31.93467439 69 34 C69 34.66 69 35.32 69 36 C69.66 36 70.32 36 71 36 C71 36.66 71 37.32 71 38 C72.485 38.495 72.485 38.495 74 39 C78 43.45714286 78 43.45714286 78 46 C78.66 46 79.32 46 80 46 C80 46.66 80 47.32 80 48 C80.66 48 81.32 48 82 48 C82 48.66 82 49.32 82 50 C82.66 50 83.32 50 84 50 C84.99 52.97 84.99 52.97 86 56 C86.66 56 87.32 56 88 56 C89.5078125 58.1171875 89.5078125 58.1171875 91.125 60.875 C91.66382813 61.77992188 92.20265625 62.68484375 92.7578125 63.6171875 C94 66 94 66 94 68 C91.03 67.01 91.03 67.01 88 66 C88 65.34 88 64.68 88 64 C87.278125 63.87625 86.55625 63.7525 85.8125 63.625 C82.16738255 62.8149739 78.92707186 61.39400554 75.5 59.9375 C73.00665785 59.00249669 70.62036533 58.44920549 68 58 C68 57.34 68 56.68 68 56 C67.319375 56.04125 66.63875 56.0825 65.9375 56.125 C62.40075832 55.97450035 59.36676967 55.05624147 56 54 C56 53.34 56 52.68 56 52 C54.081875 52.0309375 54.081875 52.0309375 52.125 52.0625 C48.25 52.125 48.25 52.125 46 51 C43.14792222 50.68744353 40.29503146 50.48962518 37.43359375 50.28125 C35 50 35 50 34 49 C32.65175377 48.89685915 31.29821357 48.86150921 29.94604492 48.85473633 C29.08391891 48.84835648 28.22179291 48.84197662 27.33354187 48.83540344 C25.92127068 48.83373421 25.92127068 48.83373421 24.48046875 48.83203125 C23.51152176 48.82870285 22.54257477 48.82537445 21.54426575 48.82194519 C19.48207067 48.81686678 17.41986734 48.81453714 15.35766602 48.81469727 C12.23895103 48.81253566 9.12060425 48.79445964 6.00195312 48.77539062 C-8.62988314 48.56578125 -8.62988314 48.56578125 -23 51 C-23.33 51.33 -23.66 51.66 -24 52 C-26.0572917 52.31923492 -28.11613521 52.51161352 -30.1875 52.71875 C-32.0167533 52.81998043 -32.0167533 52.81998043 -33 54 C-35.33297433 54.04092937 -37.66705225 54.04241723 -40 54 C-40 54.66 -40 55.32 -40 56 C-41.5778125 56.433125 -41.5778125 56.433125 -43.1875 56.875 C-46.87060901 57.87865345 -46.87060901 57.87865345 -49.75 59.1875 C-52 60 -52 60 -55 59 C-54.67 58.01 -54.34 57.02 -54 56 C-53.34 56 -52.68 56 -52 56 C-51.34 54.02 -50.68 52.04 -50 50 C-49.34 50 -48.68 50 -48 50 C-47.566875 49.13375 -47.566875 49.13375 -47.125 48.25 C-46.08333333 46.16666667 -45.04166667 44.08333333 -44 42 C-43.34 42 -42.68 42 -42 42 C-42 41.34 -42 40.68 -42 40 C-41.34 40 -40.68 40 -40 40 C-39.7525 39.44828125 -39.505 38.8965625 -39.25 38.328125 C-37.75765526 35.54863293 -35.96327477 33.2185293 -34 30.75 C-33.29875 29.85796875 -32.5975 28.9659375 -31.875 28.046875 C-31.25625 27.37140625 -30.6375 26.6959375 -30 26 C-29.34 26 -28.68 26 -28 26 C-28 25.34 -28 24.68 -28 24 C-27.34 24 -26.68 24 -26 24 C-26 23.34 -26 22.68 -26 22 C-25.34 22 -24.68 22 -24 22 C-24 21.34 -24 20.68 -24 20 C-23.34 20 -22.68 20 -22 20 C-22 19.34 -22 18.68 -22 18 C-21.34 18 -20.68 18 -20 18 C-20 17.34 -20 16.68 -20 16 C-19.34 16 -18.68 16 -18 16 C-18 15.34 -18 14.68 -18 14 C-17.34 14 -16.68 14 -16 14 C-16 13.34 -16 12.68 -16 12 C-15.01 12 -14.02 12 -13 12 C-13 11.34 -13 10.68 -13 10 C-12.34 10 -11.68 10 -11 10 C-11 9.34 -11 8.68 -11 8 C-10.01 8 -9.02 8 -8 8 C-8 7.34 -8 6.68 -8 6 C-7.34 6 -6.68 6 -6 6 C-6 5.34 -6 4.68 -6 4 C-5.01 4 -4.02 4 -3 4 C-3 3.34 -3 2.68 -3 2 C-2.01 2 -1.02 2 0 2 C0 1.34 0 0.68 0 0 Z " fill="#71C30D" transform="translate(248,108)"/>
<path d="M0 0 C0.66 0.33 1.32 0.66 2 1 C2.73249899 3.71054281 3.3660373 6.38014299 3.9375 9.125 C5.11680718 14.75461453 6.59399901 19.73495967 9 25 C9.88838271 27.20298372 10.76380271 29.41124745 11.625 31.625 C12.05039062 32.71039063 12.47578125 33.79578125 12.9140625 34.9140625 C13.86683803 37.62159009 14.52743513 40.1751122 15 43 C15.66 43 16.32 43 17 43 C17 44.32 17 45.64 17 47 C17.66 47 18.32 47 19 47 C19.67154933 48.28913487 20.33708859 49.58140204 21 50.875 C21.37125 51.59429688 21.7425 52.31359375 22.125 53.0546875 C23 55 23 55 23 57 C23.66 57 24.32 57 25 57 C25.66 58.98 26.32 60.96 27 63 C27.66 63 28.32 63 29 63 C29.66 64.98 30.32 66.96 31 69 C31.66 69 32.32 69 33 69 C36 72.46153846 36 72.46153846 36 75 C36.66 75 37.32 75 38 75 C38.33 76.32 38.66 77.64 39 79 C39.66 79 40.32 79 41 79 C41 79.66 41 80.32 41 81 C41.66 81 42.32 81 43 81 C43 81.66 43 82.32 43 83 C43.66 83 44.32 83 45 83 C45 83.66 45 84.32 45 85 C45.66 85 46.32 85 47 85 C48.35386936 86.65002828 49.68678142 88.3174387 51 90 C51.99 90.495 51.99 90.495 53 91 C53 91.66 53 92.32 53 93 C53.66 93 54.32 93 55 93 C55 93.66 55 94.32 55 95 C55.66 95 56.32 95 57 95 C57 95.66 57 96.32 57 97 C57.66 97 58.32 97 59 97 C59 97.66 59 98.32 59 99 C59.763125 99.28875 60.52625 99.5775 61.3125 99.875 C64 101 64 101 67 103 C67 103.66 67 104.32 67 105 C68.051875 105.37125 68.051875 105.37125 69.125 105.75 C72.39514548 107.17180238 75.141122 108.87246288 78 111 C78 111.66 78 112.32 78 113 C78.99 113 79.98 113 81 113 C81 113.66 81 114.32 81 115 C82.32 115 83.64 115 85 115 C85 115.66 85 116.32 85 117 C86.98 117.495 86.98 117.495 89 118 C89 118.66 89 119.32 89 120 C86.64262349 121.17868825 85.21739658 121.13283335 82.58886719 121.14526367 C81.67320984 121.15164352 80.75755249 121.15802338 79.81414795 121.16459656 C78.81844788 121.16570938 77.8227478 121.1668222 76.796875 121.16796875 C75.76749817 121.17129715 74.73812134 121.17462555 73.67755127 121.17805481 C71.48848925 121.18312888 69.29941946 121.18546299 67.11035156 121.18530273 C63.80520254 121.1874639 60.50040128 121.20554346 57.1953125 121.22460938 C42.18841517 121.26512456 28.45393658 120.3470486 14 116 C12.82695313 115.7834375 11.65390625 115.566875 10.4453125 115.34375 C5.99836905 113.60934122 4.73590251 111.12331954 2.8125 107 C2.33780273 106.06607422 2.33780273 106.06607422 1.85351562 105.11328125 C-6.884874 87.56531348 -9.37840449 69.95381826 -9.375 50.5 C-9.37681274 49.83248718 -9.37862549 49.16497437 -9.38049316 48.47723389 C-9.37665161 35.99255117 -8.2609622 23.81890419 -4.5 11.875 C-4.28730469 11.16085937 -4.07460938 10.44671875 -3.85546875 9.7109375 C-2.8238776 6.31871138 -1.73480606 3.10016269 0 0 Z " fill="#72C30F" transform="translate(553,471)"/>
<path d="M0 0 C0.33 0 0.66 0 1 0 C1 107.58 1 215.16 1 326 C31.69 326 62.38 326 94 326 C94 218.42 94 110.84 94 0 C97.3 0 100.6 0 104 0 C104 106.92 104 213.84 104 324 C105.32 324 106.64 324 108 324 C108 324.66 108 325.32 108 326 C131.76 326 155.52 326 180 326 C179.67 326.66 179.34 327.32 179 328 C169.54082877 328.02453445 160.08167016 328.04155735 150.62247276 328.05181217 C146.21737844 328.05676441 141.81230731 328.06325829 137.40722656 328.07543945 C91.5987652 328.19111739 45.81015292 327.48734205 0 327 C0 219.09 0 111.18 0 0 Z " fill="#75BC20" transform="translate(260,268)"/>
<path d="M0 0 C119.13 0 238.26 0 361 0 C361 0.66 361 1.32 361 2 C379.48 2 397.96 2 417 2 C417 2.33 417 2.66 417 3 C398.19 3 379.38 3 360 3 C360.14907958 15.80376724 360.14907958 15.80376724 360.30664062 28.60742188 C360.37282202 33.83257346 360.43802865 39.05772402 360.49731445 44.28295898 C360.54519597 48.49755323 360.59754575 52.71207084 360.65294075 56.9265728 C360.67325702 58.53122476 360.69198706 60.13589764 360.70907402 61.74058723 C360.73335734 63.99518482 360.7633766 66.24964077 360.79467773 68.50415039 C360.81022202 69.78544327 360.8257663 71.06673615 360.84178162 72.38685608 C360.9409501 76.06105904 360.9409501 76.06105904 361.57533264 79.9059906 C361.71547287 80.9270137 361.8556131 81.9480368 362 83 C361 84 361 84 357.42503357 84.08229065 C355.79428576 84.06732495 354.16358515 84.04664243 352.53295898 84.02172852 C351.64523804 84.01212097 350.75751709 84.00251343 349.84289551 83.99261475 C346.893884 83.95950086 343.94501498 83.91921605 340.99609375 83.87890625 C338.95728567 83.85461723 336.91847224 83.83077307 334.87965393 83.80735779 C329.50210502 83.74439564 324.12465022 83.67536358 318.74719238 83.60510254 C312.30121617 83.52212959 305.85514865 83.44663324 299.40909576 83.36989594 C289.60598152 83.25235099 279.80303239 83.1252599 270 83 C270 56.27 270 29.54 270 2 C180.9 2 91.8 2 0 2 C0 1.34 0 0.68 0 0 Z M271 2 C271 28.4 271 54.8 271 82 C300.37 82 329.74 82 360 82 C359.67 55.6 359.34 29.2 359 2 C329.96 2 300.92 2 271 2 Z " fill="#8DA96E" transform="translate(181,184)"/>
<path d="M0 0 C1.32 0 2.64 0 4 0 C4 0.66 4 1.32 4 2 C7.3 1.34 10.6 0.68 14 0 C14 3.63 14 7.26 14 11 C-17.68 11 -49.36 11 -82 11 C-82 10.67 -82 10.34 -82 10 C-54.28 10 -26.56 10 2 10 C2 5.59714577 1.73734147 3.80043446 0 0 Z " fill="#090E18" transform="translate(436,256)"/>
<path d="M0 0 C2.475 0.99 2.475 0.99 5 2 C5 2.66 5 3.32 5 4 C5.99 4 6.98 4 8 4 C8 4.66 8 5.32 8 6 C9.32 6 10.64 6 12 6 C12 6.66 12 7.32 12 8 C13.32 8.33 14.64 8.66 16 9 C16 9.66 16 10.32 16 11 C13.60470433 12.19764783 12.10429551 12.13307389 9.43017578 12.14526367 C8.48224152 12.15164352 7.53430725 12.15802338 6.55764771 12.16459656 C5.53057709 12.16570938 4.50350647 12.1668222 3.4453125 12.16796875 C1.86567215 12.17296135 1.86567215 12.17296135 0.25411987 12.17805481 C-1.97690391 12.18312443 -4.2079353 12.18546312 -6.43896484 12.18530273 C-9.85396836 12.18748655 -13.26864755 12.20563471 -16.68359375 12.22460938 C-18.84895723 12.2275438 -21.01432224 12.22952827 -23.1796875 12.23046875 C-24.71422073 12.24124702 -24.71422073 12.24124702 -26.27975464 12.25224304 C-27.23399323 12.24916641 -28.18823181 12.24608978 -29.17138672 12.24291992 C-30.00918671 12.24434494 -30.84698669 12.24576996 -31.71017456 12.24723816 C-34 12 -34 12 -38 10 C-24.14 10 -10.28 10 4 10 C4 9.34 4 8.68 4 8 C3.34 8 2.68 8 2 8 C2 6.02 2 4.04 2 2 C1.01 1.67 0.02 1.34 -1 1 C-0.67 0.67 -0.34 0.34 0 0 Z " fill="#9DD256" transform="translate(626,580)"/>
<path d="M0 0 C0.66 0 1.32 0 2 0 C2.66 1.98 3.32 3.96 4 6 C4.66 6 5.32 6 6 6 C7.5078125 8.1171875 7.5078125 8.1171875 9.125 10.875 C9.66382813 11.77992188 10.20265625 12.68484375 10.7578125 13.6171875 C12 16 12 16 12 18 C10.02 17.34 8.04 16.68 6 16 C6 15.34 6 14.68 6 14 C5.278125 13.87625 4.55625 13.7525 3.8125 13.625 C0.16738255 12.8149739 -3.07292814 11.39400554 -6.5 9.9375 C-8.99334215 9.00249669 -11.37963467 8.44920549 -14 8 C-14 7.34 -14 6.68 -14 6 C-12.68 6 -11.36 6 -10 6 C-10 5.34 -10 4.68 -10 4 C-9.34 4 -8.68 4 -8 4 C-8 4.66 -8 5.32 -8 6 C-6.68 6 -5.36 6 -4 6 C-4 6.66 -4 7.32 -4 8 C-2.02 8 -0.04 8 2 8 C1.67 7.236875 1.34 6.47375 1 5.6875 C0 3 0 3 0 0 Z " fill="#7FC828" transform="translate(330,158)"/>
<path d="M0 0 C-0.56820748 5.45479185 -1.94637945 9.91059256 -4 15 C-4.99 14.34 -5.98 13.68 -7 13 C-7 12.34 -7 11.68 -7 11 C-7.66 10.67 -8.32 10.34 -9 10 C-8.67 8.35 -8.34 6.7 -8 5 C-10.31 5 -12.62 5 -15 5 C-14.67 4.01 -14.34 3.02 -14 2 C-12.22978678 1.663389 -10.45880326 1.33082707 -8.6875 1 C-7.70136719 0.814375 -6.71523438 0.62875 -5.69921875 0.4375 C-3 0 -3 0 0 0 Z " fill="#292543" transform="translate(868,479)"/>
<path d="M0 0 C1.02574883 0.00212242 1.02574883 0.00212242 2.07221985 0.00428772 C4.25261847 0.00987749 6.43291376 0.02242803 8.61328125 0.03515625 C10.09309747 0.04017258 11.57291531 0.04473525 13.05273438 0.04882812 C16.67711682 0.05984354 20.30143895 0.07710113 23.92578125 0.09765625 C23.92578125 0.42765625 23.92578125 0.75765625 23.92578125 1.09765625 C17.98578125 1.09765625 12.04578125 1.09765625 5.92578125 1.09765625 C5.92578125 1.75765625 5.92578125 2.41765625 5.92578125 3.09765625 C0.64578125 3.09765625 -4.63421875 3.09765625 -10.07421875 3.09765625 C-10.07421875 2.43765625 -10.07421875 1.77765625 -10.07421875 1.09765625 C-6.5359562 -0.0817646 -3.73273149 -0.01523564 0 0 Z " fill="#514D63" transform="translate(602.07421875,594.90234375)"/>
<path d="M0 0 C3.29679683 3.29679683 4 5.28312744 4 10 C4.66 10 5.32 10 6 10 C6 11.32 6 12.64 6 14 C6.66 14 7.32 14 8 14 C8.66 15.98 9.32 17.96 10 20 C9.01 19.34 8.02 18.68 7 18 C7 17.34 7 16.68 7 16 C6.01 16 5.02 16 4 16 C3.67 15.67 3.34 15.34 3 15 C2.01 15.33 1.02 15.66 0 16 C0 15.34 0 14.68 0 14 C-0.66 14 -1.32 14 -2 14 C-2 12.68 -2 11.36 -2 10 C-1.34 10 -0.68 10 0 10 C0 10.66 0 11.32 0 12 C0.66 11.67 1.32 11.34 2 11 C1.67 9.9275 1.34 8.855 1 7.75 C0 4 0 4 0 0 Z " fill="#73C016" transform="translate(564,504)"/>
<path d="M0 0 C0.66 0 1.32 0 2 0 C2 0.66 2 1.32 2 2 C2.99 2.33 3.98 2.66 5 3 C9 7.45714286 9 7.45714286 9 10 C8.01 10.495 8.01 10.495 7 11 C7 11.99 7 12.98 7 14 C5.68 13.34 4.36 12.68 3 12 C3 10.68 3 9.36 3 8 C2.34 8 1.68 8 1 8 C-0.35439668 5.29120665 -0.06501451 2.99066732 0 0 Z " fill="#75C410" transform="translate(317,144)"/>
<path d="M0 0 C1.65 0.33 3.3 0.66 5 1 C1.66666667 4.33333333 -1.66666667 7.66666667 -5 11 C-5.99 10.67 -6.98 10.34 -8 10 C-8 9.34 -8 8.68 -8 8 C-7.34 8 -6.68 8 -6 8 C-6 6.35 -6 4.7 -6 3 C-4.02 2.34 -2.04 1.68 0 1 C0 0.67 0 0.34 0 0 Z " fill="#211E41" transform="translate(232,112)"/>
<path d="M0 0 C2 1 2 1 2.88671875 3.58203125 C3.15097656 4.64808594 3.41523437 5.71414063 3.6875 6.8125 C3.95949219 7.87082031 4.23148438 8.92914063 4.51171875 10.01953125 C4.97258895 12.83268294 4.9525694 14.35965663 4 17 C2.23537317 13.91190305 2 12.76687864 2 9 C0.35 9.66 -1.3 10.32 -3 11 C-2.53199289 6.94393835 -2.12046792 3.53411321 0 0 Z " fill="#99D254" transform="translate(553,471)"/>
<path d="M0 0 C8.57142857 0.85714286 8.57142857 0.85714286 12 3 C11.67 4.32 11.34 5.64 11 7 C9.35 7.33 7.7 7.66 6 8 C4.02 5.36 2.04 2.72 0 0 Z " fill="#201C3F" transform="translate(563,589)"/>
<path d="M0 0 C0.144375 0.61875 0.28875 1.2375 0.4375 1.875 C0.93152225 4.03258322 0.93152225 4.03258322 2 6 C0.68 6 -0.64 6 -2 6 C-2 6.66 -2 7.32 -2 8 C-2.66 8 -3.32 8 -4 8 C-4 8.66 -4 9.32 -4 10 C-2.68 10.33 -1.36 10.66 0 11 C-2.8125 12.5625 -2.8125 12.5625 -6 14 C-6.99 13.67 -7.98 13.34 -9 13 C-8.67 12.01 -8.34 11.02 -8 10 C-7.34 10 -6.68 10 -6 10 C-5.34 8.02 -4.68 6.04 -4 4 C-3.34 4 -2.68 4 -2 4 C-1.34 2.68 -0.68 1.36 0 0 Z " fill="#A5D365" transform="translate(202,154)"/>
<path d="M0 0 C4.26488247 -0.3118744 6.98566073 0.65574011 10.8125 2.5 C12.27623047 3.19609375 12.27623047 3.19609375 13.76953125 3.90625 C14.50558594 4.2671875 15.24164063 4.628125 16 5 C15.01 5.495 15.01 5.495 14 6 C14 6.66 14 7.32 14 8 C13.34 8 12.68 8 12 8 C12 7.34 12 6.68 12 6 C9.36 6 6.72 6 4 6 C4.33 4.68 4.66 3.36 5 2 C3.35 1.67 1.7 1.34 0 1 C0 0.67 0 0.34 0 0 Z " fill="#91CC42" transform="translate(260,110)"/>
<path d="M0 0 C0.66 0 1.32 0 2 0 C1.63495936 5.66442374 0.9445679 10.00703705 -2 15 C-2.99 15 -3.98 15 -5 15 C-5.66 14.01 -6.32 13.02 -7 12 C-6.38125 11.401875 -5.7625 10.80375 -5.125 10.1875 C-2.86323046 7.99188856 -2.86323046 7.99188856 -1 5 C-0.34 5 0.32 5 1 5 C0.67 3.35 0.34 1.7 0 0 Z " fill="#262340" transform="translate(811,626)"/>
<path d="M0 0 C0.33 0.66 0.66 1.32 1 2 C0 5 0 5 -3 7 C-3.12375 7.825 -3.2475 8.65 -3.375 9.5 C-3.58125 10.325 -3.7875 11.15 -4 12 C-6.5 13.1875 -6.5 13.1875 -9 14 C-9.33 14.66 -9.66 15.32 -10 16 C-10.66 15.67 -11.32 15.34 -12 15 C-10.37676928 12.87362766 -8.7515047 10.74886564 -7.125 8.625 C-6.66480469 8.02171875 -6.20460937 7.4184375 -5.73046875 6.796875 C-3.90627059 4.41748609 -2.12258788 2.12258788 0 0 Z " fill="#23203B" transform="translate(138,151)"/>
<path d="M0 0 C2.38564077 0.57584432 4.66682784 1.22227595 7 2 C7 2.66 7 3.32 7 4 C7.99 4 8.98 4 10 4 C10 4.66 10 5.32 10 6 C9.01 6 8.02 6 7 6 C7 6.66 7 7.32 7 8 C6.01 8 5.02 8 4 8 C4 7.34 4 6.68 4 6 C4.66 6 5.32 6 6 6 C6 5.34 6 4.68 6 4 C4.02 4.66 2.04 5.32 0 6 C-1.125 2.25 -1.125 2.25 0 0 Z " fill="#88CA34" transform="translate(288,122)"/>
<path d="M0 0 C0.99 0 1.98 0 3 0 C3 1.32 3 2.64 3 4 C2.34 4 1.68 4 1 4 C1 5.32 1 6.64 1 8 C0.34 7.67 -0.32 7.34 -1 7 C-1.99 6.67 -2.98 6.34 -4 6 C-4 6.66 -4 7.32 -4 8 C-4.66 8 -5.32 8 -6 8 C-6 8.66 -6 9.32 -6 10 C-6.99 10 -7.98 10 -9 10 C-9 9.34 -9 8.68 -9 8 C-8.34 8 -7.68 8 -7 8 C-7 7.34 -7 6.68 -7 6 C-6.34 6 -5.68 6 -5 6 C-5 5.34 -5 4.68 -5 4 C-4.01 4 -3.02 4 -2 4 C-2 3.34 -2 2.68 -2 2 C-1.34 2 -0.68 2 0 2 C0 1.34 0 0.68 0 0 Z " fill="#95CF4A" transform="translate(237,116)"/>
<path d="M0 0 C3.48670834 1.1094072 6.77484237 2.26337666 10 4 C10 4.66 10 5.32 10 6 C7.36 6 4.72 6 2 6 C2 5.34 2 4.68 2 4 C0.68 4 -0.64 4 -2 4 C-1.34 2.68 -0.68 1.36 0 0 Z " fill="#8DCC3D" transform="translate(278,116)"/>
<path d="M0 0 C0.69738281 0.01804688 1.39476562 0.03609375 2.11328125 0.0546875 C3.82611539 0.10161446 5.53823824 0.17335395 7.25 0.25 C4.20401253 2.28065831 3.12187319 2.54482404 -0.375 2.8125 C-3.36114422 2.83977223 -3.36114422 2.83977223 -5.75 4.25 C-7.74958364 4.29080783 -9.75045254 4.29254356 -11.75 4.25 C-8.36399708 -0.18322032 -5.23938601 -0.25751236 0 0 Z " fill="#A6D76C" transform="translate(229.75,155.75)"/>
<path d="M0 0 C0.99 0 1.98 0 3 0 C3.125 2.875 3.125 2.875 3 6 C1 8 1 8 -1.625 8.125 C-2.40875 8.08375 -3.1925 8.0425 -4 8 C-4.33 7.34 -4.66 6.68 -5 6 C-4.175 5.566875 -3.35 5.13375 -2.5 4.6875 C-1.2625 3.8521875 -1.2625 3.8521875 0 3 C0 2.01 0 1.02 0 0 Z " fill="#81C82D" transform="translate(315,156)"/>
<path d="M0 0 C0.66 0 1.32 0 2 0 C0.23570801 4.97209562 -2.3939166 9.43438061 -5 14 C-6.22419163 10.06204091 -5.48320272 7.83887763 -4 4 C-3.34 4 -2.68 4 -2 4 C-2 3.34 -2 2.68 -2 2 C-1.34 2 -0.68 2 0 2 C0 1.34 0 0.68 0 0 Z " fill="#3B3951" transform="translate(167,352)"/>
<path d="M0 0 C0.66 0 1.32 0 2 0 C1.67 2.31 1.34 4.62 1 7 C0.01 7.33 -0.98 7.66 -2 8 C-2 7.34 -2 6.68 -2 6 C-3.32 6 -4.64 6 -6 6 C-6 5.34 -6 4.68 -6 4 C-5.34 4 -4.68 4 -4 4 C-4 3.34 -4 2.68 -4 2 C-2.68 2 -1.36 2 0 2 C0 1.34 0 0.68 0 0 Z " fill="#78C41D" transform="translate(594,552)"/>
<path d="M0 0 C0.99 0.33 1.98 0.66 3 1 C4.19126781 4.57380342 3.7349445 6.50883302 3.0625 10.1875 C2.86785156 11.27417969 2.67320312 12.36085938 2.47265625 13.48046875 C2.31667969 14.31191406 2.16070313 15.14335937 2 16 C1.67 16 1.34 16 1 16 C0.67 10.72 0.34 5.44 0 0 Z " fill="#413F57" transform="translate(619,295)"/>
<path d="M0 0 C3.63 0 7.26 0 11 0 C4.625 4.25 4.625 4.25 0 4 C0 2.68 0 1.36 0 0 Z " fill="#8CC93E" transform="translate(210,158)"/>
<path d="M0 0 C0.66 0 1.32 0 2 0 C2 0.66 2 1.32 2 2 C2.99 2 3.98 2 5 2 C5 2.66 5 3.32 5 4 C5.66 4 6.32 4 7 4 C7 4.66 7 5.32 7 6 C6.34 6 5.68 6 5 6 C4.67 6.99 4.34 7.98 4 9 C3.01 8.67 2.02 8.34 1 8 C1 7.34 1 6.68 1 6 C1.99 6 2.98 6 4 6 C4 5.34 4 4.68 4 4 C2.68 4 1.36 4 0 4 C0 2.68 0 1.36 0 0 Z " fill="#8AC936" transform="translate(301,130)"/>
<path d="M0 0 C0.99 0.33 1.98 0.66 3 1 C1.68 3.31 0.36 5.62 -1 8 C-1.99 7.67 -2.98 7.34 -4 7 C-4 6.01 -4 5.02 -4 4 C-3.34 4 -2.68 4 -2 4 C-2 3.01 -2 2.02 -2 1 C-1.34 0.67 -0.68 0.34 0 0 Z " fill="#2C2646" transform="translate(192,159)"/>
<path d="M0 0 C0 2.64 0 5.28 0 8 C-1.65 8 -3.3 8 -5 8 C-4 6 -3 4 -2 2 C-2.66 1.67 -3.32 1.34 -4 1 C-2 0 -2 0 0 0 Z " fill="#86CA34" transform="translate(208,156)"/>
<path d="M0 0 C-2.31 1.65 -4.62 3.3 -7 5 C-7 4.34 -7 3.68 -7 3 C-7.66 3 -8.32 3 -9 3 C-9.33 2.01 -9.66 1.02 -10 0 C-3.375 -1.125 -3.375 -1.125 0 0 Z " fill="#2F294A" transform="translate(245,108)"/>
<path d="M0 0 C3.48331435 3.01887244 4.79157144 5.56909529 6 10 C4.02 9.34 2.04 8.68 0 8 C0 7.34 0 6.68 0 6 C0.66 6 1.32 6 2 6 C2 5.34 2 4.68 2 4 C1.34 4 0.68 4 0 4 C0 2.68 0 1.36 0 0 Z " fill="#A8D56B" transform="translate(336,166)"/>
<path d="M0 0 C1.65 0.33 3.3 0.66 5 1 C5.33 1.99 5.66 2.98 6 4 C5.34 4.66 4.68 5.32 4 6 C3.01 6 2.02 6 1 6 C0.34 5.34 -0.32 4.68 -1 4 C-0.01 4 0.98 4 2 4 C1.34 2.68 0.68 1.36 0 0 Z " fill="#221C41" transform="translate(598,616)"/>
<path d="M0 0 C0.99 0.33 1.98 0.66 3 1 C1.35 3.64 -0.3 6.28 -2 9 C-2.66 8.67 -3.32 8.34 -4 8 C-3.49396008 5.83125748 -3.00016187 4.00032373 -2 2 C-1.34 2 -0.68 2 0 2 C0 1.34 0 0.68 0 0 Z " fill="#2D2A4A" transform="translate(198,150)"/>
<path d="M0 0 C2.475 0.99 2.475 0.99 5 2 C2.61426621 3.89213369 0.92824652 5.02391783 -2 6 C-2.33 5.01 -2.66 4.02 -3 3 C-2.01 2.01 -1.02 1.02 0 0 Z " fill="#1F1C3A" transform="translate(748,619)"/>
<path d="M0 0 C1.32 0 2.64 0 4 0 C3.34 1.98 2.68 3.96 2 6 C1.01 6 0.02 6 -1 6 C-1.33 5.01 -1.66 4.02 -2 3 C-1.34 2.01 -0.68 1.02 0 0 Z " fill="#262140" transform="translate(174,336)"/>
<path d="M0 0 C0.144375 0.61875 0.28875 1.2375 0.4375 1.875 C0.93152225 4.03258322 0.93152225 4.03258322 2 6 C0.68 6 -0.64 6 -2 6 C-2 6.66 -2 7.32 -2 8 C-2.99 8 -3.98 8 -5 8 C-4.67 6.68 -4.34 5.36 -4 4 C-3.34 4 -2.68 4 -2 4 C-1.34 2.68 -0.68 1.36 0 0 Z " fill="#98CE4D" transform="translate(202,154)"/>
<path d="M0 0 C0.99 0 1.98 0 3 0 C3 0.66 3 1.32 3 2 C2.34 2 1.68 2 1 2 C1 2.99 1 3.98 1 5 C-0.98 5.33 -2.96 5.66 -5 6 C-5 5.34 -5 4.68 -5 4 C-4.34 4 -3.68 4 -3 4 C-3 3.34 -3 2.68 -3 2 C-2.01 2 -1.02 2 0 2 C0 1.34 0 0.68 0 0 Z " fill="#9DD155" transform="translate(245,110)"/>
<path d="M0 0 C2.31 0 4.62 0 7 0 C6.3125 1.9375 6.3125 1.9375 5 4 C2.375 4.75 2.375 4.75 0 5 C0 3.35 0 1.7 0 0 Z " fill="#181437" transform="translate(49,262)"/>
<path d="M0 0 C0.99 0.33 1.98 0.66 3 1 C4.1875 3.5625 4.1875 3.5625 5 6 C4.34 6.66 3.68 7.32 3 8 C2.67 7.01 2.34 6.02 2 5 C1.34 5 0.68 5 0 5 C0 3.35 0 1.7 0 0 Z " fill="#25223F" transform="translate(698,237)"/>
<path d="M0 0 C1.32 0 2.64 0 4 0 C4.66 0.66 5.32 1.32 6 2 C6.99 2.33 7.98 2.66 9 3 C8.67 3.66 8.34 4.32 8 5 C5.03 4.01 2.06 3.02 -1 2 C-0.67 1.34 -0.34 0.68 0 0 Z " fill="#35314E" transform="translate(614,628)"/>
<path d="M0 0 C2.64 0.33 5.28 0.66 8 1 C6.515 3.475 6.515 3.475 5 6 C3.31237149 4.3545622 1.6459651 2.68711423 0 1 C0 0.67 0 0.34 0 0 Z " fill="#424055" transform="translate(563,589)"/>
<path d="M0 0 C2.97 0 5.94 0 9 0 C9 1.32 9 2.64 9 4 C6.03 3.01 3.06 2.02 0 1 C0 0.67 0 0.34 0 0 Z " fill="#9ACF53" transform="translate(321,166)"/>
<path d="M0 0 C1.67542976 0.28604898 3.34385343 0.61781233 5 1 C5.33 1.99 5.66 2.98 6 4 C4.02 4 2.04 4 0 4 C-0.33 3.01 -0.66 2.02 -1 1 C-0.67 0.67 -0.34 0.34 0 0 Z " fill="#68C606" transform="translate(326,162)"/>
<path d="M0 0 C0.66 0 1.32 0 2 0 C2 0.66 2 1.32 2 2 C2.99 2.33 3.98 2.66 5 3 C5.33 3.99 5.66 4.98 6 6 C4.02 6 2.04 6 0 6 C0 4.02 0 2.04 0 0 Z " fill="#8BCA3D" transform="translate(317,144)"/>
<path d="M0 0 C0.66 0 1.32 0 2 0 C2.66 1.98 3.32 3.96 4 6 C4.66 6 5.32 6 6 6 C6 6.66 6 7.32 6 8 C4.68 8 3.36 8 2 8 C0.74335022 5.09399739 0 3.20395416 0 0 Z " fill="#9ED054" transform="translate(330,158)"/>
<path d="M0 0 C0.33 0 0.66 0 1 0 C1.25 2.3125 1.25 2.3125 1 5 C-1.04424538 6.97610386 -2.1176825 8 -5 8 C-3.6299034 5.0490227 -2.06764583 2.51713405 0 0 Z " fill="#97CD4D" transform="translate(213,140)"/>
<path d="M0 0 C1.5625 1.25 1.5625 1.25 3 3 C2.6875 5.1875 2.6875 5.1875 2 7 C0.62437146 5.71034824 -0.70766393 4.37310707 -2 3 C-2 2.34 -2 1.68 -2 1 C-1.34 0.67 -0.68 0.34 0 0 Z " fill="#282341" transform="translate(605,523)"/>
<path d="M0 0 C1.98 0.66 3.96 1.32 6 2 C5.67 3.65 5.34 5.3 5 7 C3.29115995 5.37660195 1.62553283 3.70680947 0 2 C0 1.34 0 0.68 0 0 Z " fill="#36344B" transform="translate(567,478)"/>
<path d="M0 0 C0.33 0.99 0.66 1.98 1 3 C1.99 3.33 2.98 3.66 4 4 C3.67 5.32 3.34 6.64 3 8 C1.35 6.35 -0.3 4.7 -2 3 C-1.34 2.67 -0.68 2.34 0 2 C0 1.34 0 0.68 0 0 Z " fill="#332F4C" transform="translate(563,469)"/>
<path d="M0 0 C1.67542976 0.28604898 3.34385343 0.61781233 5 1 C0.25 5 0.25 5 -2 5 C-1.125 1.125 -1.125 1.125 0 0 Z " fill="#322E48" transform="translate(660,412)"/>
<path d="M0 0 C0.66 0.99 1.32 1.98 2 3 C1.03221758 7.22305057 0.12148941 8.87851059 -3 12 C-2.01 8.04 -1.02 4.08 0 0 Z " fill="#403E53" transform="translate(105,207)"/>
<path d="M0 0 C0.33 0.66 0.66 1.32 1 2 C-0.22934015 5.68802044 -1.93859378 6.72356973 -5 9 C-5.66 8.67 -6.32 8.34 -7 8 C-4.69 5.36 -2.38 2.72 0 0 Z " fill="#454359" transform="translate(138,151)"/>
<path d="M0 0 C1.32 0.66 2.64 1.32 4 2 C3.67 2.66 3.34 3.32 3 4 C1.68 4 0.36 4 -1 4 C-1 4.66 -1 5.32 -1 6 C-1.66 6 -2.32 6 -3 6 C-2.67 4.68 -2.34 3.36 -2 2 C-1.34 2 -0.68 2 0 2 C0 1.34 0 0.68 0 0 Z " fill="#96CF4E" transform="translate(206,148)"/>
<path d="M0 0 C0.66 0 1.32 0 2 0 C1.88590407 1.45922693 1.75834456 2.91740598 1.625 4.375 C1.55539062 5.18710937 1.48578125 5.99921875 1.4140625 6.8359375 C1 9 1 9 -1 11 C-1.33 9.35 -1.66 7.7 -2 6 C-1.01 5.67 -0.02 5.34 1 5 C0.67 3.35 0.34 1.7 0 0 Z " fill="#34314A" transform="translate(811,626)"/>
<path d="M0 0 C0.66 0 1.32 0 2 0 C2.33 1.32 2.66 2.64 3 4 C3.66 4 4.32 4 5 4 C5 4.66 5 5.32 5 6 C3.35 5.67 1.7 5.34 0 5 C0 3.35 0 1.7 0 0 Z " fill="#91CE40" transform="translate(589,546)"/>
<path d="M0 0 C1.9375 0.5625 1.9375 0.5625 4 2 C4.75 5.625 4.75 5.625 5 9 C0.57142857 3.85714286 0.57142857 3.85714286 0 0 Z " fill="#3B384F" transform="translate(55,275)"/>
<path d="M0 0 C1.32 0 2.64 0 4 0 C3.34 1.32 2.68 2.64 2 4 C0.68 4 -0.64 4 -2 4 C-2 3.34 -2 2.68 -2 2 C-1.34 2 -0.68 2 0 2 C0 1.34 0 0.68 0 0 Z " fill="#30304A" transform="translate(226,118)"/>
<path d="M0 0 C0.33 1.32 0.66 2.64 1 4 C1.66 4 2.32 4 3 4 C3.66 5.98 4.32 7.96 5 10 C4.01 9.34 3.02 8.68 2 8 C2 7.34 2 6.68 2 6 C1.01 6 0.02 6 -1 6 C-0.67 4.02 -0.34 2.04 0 0 Z " fill="#A1D85B" transform="translate(569,514)"/>
<path d="M0 0 C2.00773956 2.00773956 2.99392854 3.36873617 4 6 C3.625 8.25 3.625 8.25 3 10 C-0.00617269 6.99382731 0.40414684 4.17618402 0 0 Z " fill="#A9D86A" transform="translate(564,504)"/>
<path d="M0 0 C-0.60183749 2.02045442 -1.27306096 4.02111039 -2 6 C-2.99 6.495 -2.99 6.495 -4 7 C-4.33 5.35 -4.66 3.7 -5 2 C-2 0 -2 0 0 0 Z " fill="#312D47" transform="translate(215,272)"/>
<path d="M0 0 C0.99 0.33 1.98 0.66 3 1 C2.67 1.66 2.34 2.32 2 3 C1.01 3 0.02 3 -1 3 C-1.66 4.32 -2.32 5.64 -3 7 C-3.1875 4.625 -3.1875 4.625 -3 2 C-2.01 1.34 -1.02 0.68 0 0 Z " fill="#211E39" transform="translate(219,264)"/>
<path d="M0 0 C0.99 0.33 1.98 0.66 3 1 C1.515 3.475 1.515 3.475 0 6 C-1.32 5.67 -2.64 5.34 -4 5 C-2.68 3.35 -1.36 1.7 0 0 Z " fill="#9CD153" transform="translate(218,134)"/>
<path d="M0 0 C1.98 0.99 3.96 1.98 6 3 C5.01 3.33 4.02 3.66 3 4 C2.67 4.66 2.34 5.32 2 6 C1.34 5.34 0.68 4.68 0 4 C0 2.68 0 1.36 0 0 Z " fill="#1D1B38" transform="translate(650,583)"/>
<path d="M0 0 C-0.66 0.66 -1.32 1.32 -2 2 C-4.72869407 1.96712417 -7.2966618 1.43602229 -10 1 C-10 0.67 -10 0.34 -10 0 C-6.33694766 -0.74926071 -3.57644848 -1.2380014 0 0 Z " fill="#4F4C65" transform="translate(834,486)"/>
<path d="M0 0 C0.99 0.33 1.98 0.66 3 1 C1.25 4.875 1.25 4.875 -1 6 C-1.625 4.125 -1.625 4.125 -2 2 C-1.34 1.34 -0.68 0.68 0 0 Z " fill="#1D1A37" transform="translate(684,393)"/>
</svg>
