<?xml version="1.0" encoding="UTF-8"?>
<svg version="1.1" xmlns="http://www.w3.org/2000/svg" width="40" height="40">
<path d="M0 0 C2.375 0.8125 2.375 0.8125 4.375 2.8125 C6.67983533 3.06383272 8.99597463 3.2168746 11.3125 3.3125 C18.04258545 3.5908903 18.04258545 3.5908903 21.375 5.8125 C21.64018132 9.98910573 21.69386422 12.85590734 20.375 16.8125 C23.015 17.1425 25.655 17.4725 28.375 17.8125 C27.85231534 20.57526177 27.26630413 23.1385876 26.375 25.8125 C24.95876784 25.86697047 23.54191809 25.90550508 22.125 25.9375 C20.94164062 25.97230469 20.94164062 25.97230469 19.734375 26.0078125 C17.375 25.8125 17.375 25.8125 15.5 24.8125 C12.49545552 23.39859672 9.92263912 23.62154722 6.625 23.6875 C4.5625 23.72875 2.5 23.77 0.375 23.8125 C0.375 18.5325 0.375 13.2525 0.375 7.8125 C-0.285 7.8125 -0.945 7.8125 -1.625 7.8125 C-1.934375 8.59625 -2.24375 9.38 -2.5625 10.1875 C-3.625 12.8125 -3.625 12.8125 -4.625 14.8125 C-5.285 14.8125 -5.945 14.8125 -6.625 14.8125 C-8.66669485 11.90701118 -9.625 10.41107954 -9.625 6.8125 C-8.965 6.8125 -8.305 6.8125 -7.625 6.8125 C-7.5425 6.214375 -7.46 5.61625 -7.375 5 C-6.073295 1.20336042 -4.00507219 -0.28607659 0 0 Z M13.375 7.8125 C13.375 9.1325 13.375 10.4525 13.375 11.8125 C14.365 11.8125 15.355 11.8125 16.375 11.8125 C16.045 10.4925 15.715 9.1725 15.375 7.8125 C14.715 7.8125 14.055 7.8125 13.375 7.8125 Z " fill="#425938" transform="translate(10.625,6.1875)"/>
<path d="M0 0 C6.875 0.875 6.875 0.875 8 2 C8.23529412 9.29411765 8.23529412 9.29411765 7 13 C9.64 13.33 12.28 13.66 15 14 C14.47731534 16.76276177 13.89130413 19.3260876 13 22 C11.58376784 22.05447047 10.16691809 22.09300508 8.75 22.125 C7.56664062 22.15980469 7.56664062 22.15980469 6.359375 22.1953125 C3.76728871 21.98073582 2.29412805 21.16541705 0 20 C-1.32 20 -2.64 20 -4 20 C-4 14.72 -4 9.44 -4 4 C-2.68 4 -1.36 4 0 4 C0 2.68 0 1.36 0 0 Z M0 4 C0 5.32 0 6.64 0 8 C0.99 8 1.98 8 3 8 C2.67 6.68 2.34 5.36 2 4 C1.34 4 0.68 4 0 4 Z " fill="#1B1B35" transform="translate(24,10)"/>
<path d="M0 0 C0.33 0.66 0.66 1.32 1 2 C4.96 2 8.92 2 13 2 C13 2.99 13 3.98 13 5 C11.68 5 10.36 5 9 5 C9 9.95 9 14.9 9 20 C7.68 20 6.36 20 5 20 C5 15.05 5 10.1 5 5 C4.34 5 3.68 5 3 5 C2.690625 5.78375 2.38125 6.5675 2.0625 7.375 C1 10 1 10 0 12 C-0.66 12 -1.32 12 -2 12 C-5 7.61538462 -5 7.61538462 -5 5 C-4.01 5 -3.02 5 -2 5 C-1.7834375 4.0409375 -1.7834375 4.0409375 -1.5625 3.0625 C-1 1 -1 1 0 0 Z " fill="#0F0B30" transform="translate(6,9)"/>
<path d="M0 0 C1.32 0 2.64 0 4 0 C4 5.28 4 10.56 4 16 C1.36 16 -1.28 16 -4 16 C-2.68 15.67 -1.36 15.34 0 15 C0 10.05 0 5.1 0 0 Z " fill="#6EB915" transform="translate(15,14)"/>
</svg>
